<svg width="34" height="31" viewBox="0 0 34 31" fill="none" xmlns="http://www.w3.org/2000/svg">
<g id="gridicons:stats">
<path id="Vector" d="M26.5643 4.61719H7.37852C6.65161 4.61719 5.95447 4.87456 5.44046 5.3327C4.92646 5.79083 4.6377 6.4122 4.6377 7.0601V24.1605C4.6377 24.8084 4.92646 25.4297 5.44046 25.8879C5.95447 26.346 6.65161 26.6034 7.37852 26.6034H26.5643C27.2912 26.6034 27.9883 26.346 28.5024 25.8879C29.0164 25.4297 29.3051 24.8084 29.3051 24.1605V7.0601C29.3051 6.4122 29.0164 5.79083 28.5024 5.3327C27.9883 4.87456 27.2912 4.61719 26.5643 4.61719ZM26.5643 24.1605H7.37852V7.0601H26.5643V24.1605ZM12.8602 21.7176H10.1193V15.6103H12.8602V21.7176ZM18.3418 21.7176H15.601V9.50301H18.3418V21.7176ZM23.8235 21.7176H21.0826V13.1674H23.8235V21.7176Z" fill="white"/>
</g>
</svg>
