<svg width="26" height="26" viewBox="0 0 26 26" fill="none" xmlns="http://www.w3.org/2000/svg">
<g id="icomoon-free:stats-dots" clip-path="url(#clip0_2_129)">
<path id="Vector" d="M3.65009 22.4461H25.5469V25.5742H0.521973V0.549316H3.65009V22.4461ZM7.56023 20.8821C7.24311 20.8827 6.92915 20.819 6.63733 20.6949C6.34551 20.5708 6.08187 20.3888 5.86236 20.16C5.64285 19.9311 5.47202 19.6601 5.36019 19.3633C5.24835 19.0666 5.19784 18.7503 5.2117 18.4334C5.22556 18.1166 5.30351 17.8059 5.44084 17.5201C5.57816 17.2342 5.77201 16.9792 6.01067 16.7703C6.24933 16.5615 6.52785 16.4033 6.8294 16.3051C7.13095 16.207 7.44927 16.1709 7.76512 16.1993L10.2864 11.9967C10.0558 11.6426 9.92519 11.2329 9.90821 10.8107C9.89124 10.3886 9.98857 9.96969 10.1899 9.59828C10.3913 9.22686 10.6892 8.91672 11.0522 8.70059C11.4153 8.48447 11.8299 8.37038 12.2524 8.37038C12.6749 8.37038 13.0895 8.48447 13.4526 8.70059C13.8156 8.91672 14.1135 9.22686 14.3149 9.59828C14.5162 9.96969 14.6136 10.3886 14.5966 10.8107C14.5796 11.2329 14.449 11.6426 14.2184 11.9967L16.7397 16.1993C16.8593 16.1885 16.9796 16.1875 17.0994 16.1962L21.2629 8.91077C20.9637 8.4725 20.822 7.94575 20.8607 7.41651C20.8995 6.88727 21.1166 6.38681 21.4765 5.99684C21.8364 5.60688 22.3179 5.35045 22.8423 5.26941C23.3667 5.18838 23.9032 5.28753 24.364 5.55068C24.8248 5.81383 25.1828 6.22543 25.3795 6.71828C25.5762 7.21113 25.6 7.75611 25.4471 8.26425C25.2941 8.77238 24.9734 9.21365 24.5373 9.51601C24.1012 9.81836 23.5755 9.96394 23.046 9.92897L18.8824 17.2144C19.1217 17.5652 19.2612 17.9744 19.2861 18.3983C19.311 18.8222 19.2204 19.2449 19.024 19.6214C18.8275 19.9979 18.5326 20.314 18.1706 20.536C17.8086 20.758 17.3931 20.8775 16.9685 20.882C16.5439 20.8864 16.126 20.7755 15.7595 20.5611C15.3929 20.3467 15.0915 20.0368 14.8872 19.6645C14.683 19.2922 14.5836 18.8715 14.5997 18.4471C14.6157 18.0228 14.7467 17.6108 14.9786 17.255L12.4573 13.0524C12.321 13.065 12.1838 13.065 12.0475 13.0524L9.52625 17.255C9.757 17.6091 9.88782 18.0189 9.90491 18.4411C9.92199 18.8634 9.8247 19.2824 9.62331 19.654C9.42192 20.0255 9.12391 20.3358 8.76077 20.5519C8.39763 20.7681 7.98284 20.8822 7.56023 20.8821Z" fill="white"/>
</g>
<defs>
<clipPath id="clip0_2_129">
<rect width="25.0249" height="25.0249" fill="white" transform="translate(0.521973 0.549316)"/>
</clipPath>
</defs>
</svg>
